<?xml version="1.0" encoding="UTF-8"?>
<svg width="328px" height="300px" viewBox="0 0 328 300" version="1.1" xmlns="http://www.w3.org/2000/svg" xmlns:xlink="http://www.w3.org/1999/xlink">
    <!-- Generator: Sketch 55.2 (78181) - https://sketchapp.com -->
    <title>Group 16</title>
    <desc>Created with Sketch.</desc>
    <g id="Page-1" stroke="none" stroke-width="1" fill="none" fill-rule="evenodd">
        <g id="Group-16" fill="#FFFFFF">
            <path d="M265.402619,133.837679 C271.13074,136.11399 273.939598,142.627942 271.666534,148.35931 C269.386975,154.087431 262.873024,156.896289 257.144902,154.619978 C251.413534,152.343667 248.601429,145.829715 250.877741,140.101594 C253.154052,134.370225 259.668003,131.558121 265.402619,133.837679 L265.402619,133.837679 Z M236.563932,132.113398 L234.985776,136.088012 L240.905484,141.215395 L240.639211,144.355471 L233.99537,148.716506 L235.057216,152.85673 L242.97722,153.496435 L244.675523,156.172156 L241.869913,163.595333 L245.165856,166.306774 L251.965564,162.134078 L254.910805,163.306329 L256.989035,171.002274 L261.246159,171.310761 L264.298559,163.975259 L267.370443,163.192676 L273.566166,168.157697 L277.167348,165.86515 L275.316425,158.133485 L277.310227,155.675329 L285.136061,156.009794 L286.714217,152.035179 L280.794509,146.907797 L281.064029,143.767721 L287.701376,139.406686 L286.646025,135.259968 L278.729268,134.617015 L277.030965,131.931553 L279.849564,124.485645 L276.56661,121.73199 L269.802621,125.817011 L266.85738,124.648006 L264.740183,117.033242 L260.453834,116.809183 L257.401434,124.144685 L254.32955,124.933763 L248.137075,119.962247 L244.529398,122.254795 L246.383568,129.989707 L244.389767,132.447863 L236.563932,132.113398 Z" id="Fill-1"></path>
            <path d="M315.284033,73.1569388 C308.227793,90.3185714 291.686382,101.404629 273.147922,101.404629 C267.208731,101.404629 261.38644,100.248613 255.843411,97.9690551 C232.615945,88.4156922 221.490921,61.7429106 231.041036,38.5121973 C238.090782,21.3570592 254.641934,10.2742489 273.186889,10.2742489 C279.122833,10.2742489 284.948371,11.4302643 290.484905,13.7065755 C313.715619,23.2664329 324.833824,49.9359672 315.284033,73.1569388 M218.698299,43.5746354 C212.820805,69.6304424 226.420222,96.9786487 251.933741,107.47371 C258.72046,110.263084 265.861128,111.678878 273.147922,111.678878 C285.714718,111.678878 299.164762,105.976735 299.164762,105.976735 L298.106164,111.133342 L303.304986,116.497773 C302.655539,119.585893 302.658786,119.660579 302.019081,123.060434 L296.10262,124.800951 L294.712804,131.935125 L299.651847,136.185754 C299.19074,139.033578 298.833544,141.430037 298.398415,144.443471 L291.939666,146.742512 L290.994721,153.503254 L296.609189,157.883773 C296.248746,160.903701 295.894797,162.657207 295.576568,165.807024 L288.760624,168.047616 L288.137155,175.071383 L294.521217,179.227843 C294.267933,182.582236 294.09583,184.933234 293.900996,188.411021 L287.692284,190.576927 L287.137007,196.392723 C287.127265,196.714199 277.229695,185.270946 265.494191,180.442309 C257.950866,177.344447 250.030862,175.769539 241.942002,175.769539 C216.688261,175.769539 194.178434,190.859436 184.589351,214.203802 C180.579017,223.945505 179.150234,234.310676 180.277024,244.49725 L177.880566,243.003522 L169.781964,246.646919 C167.372516,245.059022 165.437164,243.899759 162.998491,242.39629 L163.576499,234.813998 L157.24764,231.436874 L150.292064,235.135474 C146.973391,233.291045 145.629036,232.566912 142.320104,230.865361 L142.703278,223.792885 L136.004234,220.545651 L128.983713,224.312442 C125.775446,222.786242 124.265482,222.075098 121.12216,220.678787 L121.729392,213.580333 L114.832267,210.87214 L109.013223,215.470224 C105.431524,214.015463 103.967021,213.557603 100.580156,212.278193 L100.930857,207.520995 C120.8981,200.500474 137.348589,185.274193 145.732947,164.888057 C160.608527,128.707374 145.284829,87.5032194 111.513594,69.4063833 C111.513594,69.4063833 115.877876,68.6173054 119.280978,68.0750173 L124.599947,73.6407767 L132.149767,72.3483775 L133.637,65.422027 C137.14726,64.7368605 139.193018,64.3894065 142.911101,63.5483728 L146.557745,68.6010692 L154.204981,66.7761236 L155.081735,60.6063787 C158.436127,59.7361199 161.848971,58.8009165 165.310522,57.7975211 L169.713772,62.9313983 L177.136949,60.6193676 L177.273333,54.0567073 C180.553039,52.9851201 183.267727,52.0109498 186.609131,50.8094732 L192.493119,55.410804 L199.851352,52.4882932 L199.598068,45.7340461 C202.205597,44.678695 205.404123,43.4609822 208.027888,42.3147086 L213.061101,45.8022381 M289.747783,257.443973 C281.733609,276.920883 262.951607,289.507163 241.899787,289.507163 C235.155282,289.507163 228.547161,288.19528 222.247526,285.60074 C215.334165,282.75941 209.255342,278.541253 204.28058,273.26125 L204.283827,273.254756 C204.257849,273.228778 204.231871,273.206047 204.202646,273.18007 C200.020208,268.71837 196.617107,263.503312 194.188176,257.687515 C188.869206,244.938874 188.830239,230.884844 194.094006,218.110225 C202.095191,198.633315 220.880441,186.043788 241.942002,186.043788 C248.68326,186.043788 255.294628,187.358918 261.584521,189.943716 C287.961804,200.79922 300.596792,231.079678 289.747783,257.443973 M10.930515,135.494093 C10.930515,99.7647756 39.9997553,70.6987825 75.729073,70.6987825 C111.455143,70.6987825 140.524384,99.7647756 140.524384,135.494093 C140.524384,171.223411 111.455143,200.289404 75.729073,200.289404 C39.9997553,200.289404 10.930515,171.223411 10.930515,135.494093 M294.397822,4.20516826 C287.607856,1.41254687 280.470435,0 273.186889,0 C258.915295,0 246.471893,6.39705133 235.548197,14.5476091 C170.421669,63.1457158 87.113876,60.0900684 75.8751985,60.388814 C75.8329844,60.388814 75.7940176,60.3855667 75.7518036,60.3855667 C44.932304,60.3855667 17.4542084,78.8071262 5.72844581,107.311348 C-1.95775748,126.012169 -1.90904897,146.586645 5.87457135,165.245253 C13.6516972,183.900613 27.8940663,199.302245 46.9358475,206.098706 C63.4740112,211.99893 151.795534,233.258573 196.971055,280.489594 C202.903752,286.734025 210.132096,291.728271 218.341104,295.102147 C225.877934,298.209751 233.80768,299.778165 241.899787,299.778165 C267.134044,299.778165 289.643872,284.652548 299.24919,261.308181 C303.168602,251.777549 304.512957,242.026105 303.636204,232.161007 L303.639451,232.161007 C298.424393,144.281109 320.843298,89.841228 324.785115,77.0536198 C333.844898,47.6434198 322.85983,15.9244364 294.397822,4.20516826" id="Fill-2"></path>
            <path d="M76.4687929,89.7129622 C51.4943148,89.7129622 31.2478098,109.959467 31.2478098,134.933945 C31.2478098,159.908423 51.4943148,180.154928 76.4687929,180.154928 C101.443271,180.154928 121.689776,159.908423 121.689776,134.933945 C121.689776,109.959467 101.443271,89.7129622 76.4687929,89.7129622 M75.3712277,196.011173 C67.5096738,196.011173 59.8104816,194.484973 52.481474,191.47154 C37.602647,185.356998 25.9937849,173.809833 19.7980621,158.956984 C13.6023392,144.104135 13.5633724,127.738074 19.6844089,112.862495 C29.0072182,90.1740695 50.8773404,75.5063127 75.4004529,75.5063127 C83.2717485,75.5063127 90.974188,77.03576 98.3031955,80.058935 C113.182022,86.1702297 124.790885,97.7206417 130.986607,112.573491 C137.175836,127.419845 137.214803,143.795647 131.087272,158.674474 C121.76771,181.353158 99.9008347,196.011173 75.3712277,196.011173" id="Fill-3"></path>
            <path d="M241.94947,204.269539 C223.14149,204.269539 207.895725,219.515303 207.895725,238.323284 C207.895725,257.131264 223.14149,272.380276 241.94947,272.380276 C260.75745,272.380276 276.003215,257.131264 276.003215,238.323284 C276.003215,219.515303 260.75745,204.269539 241.94947,204.269539 M241.887773,285.310762 C235.69205,285.310762 229.622969,284.109286 223.842892,281.735557 C212.094399,276.90692 202.937199,267.791934 198.050111,256.069419 C193.166271,244.353398 193.133799,231.432653 197.965683,219.700396 C205.323916,201.801641 222.586213,190.234993 241.929987,190.234993 C248.135451,190.234993 254.211026,191.439717 259.99435,193.819939 C271.733102,198.638835 280.89355,207.747327 285.787132,219.466595 C290.670972,231.179369 290.703444,244.096866 285.881301,255.835618 C278.51008,273.740867 261.244536,285.310762 241.887773,285.310762" id="Fill-4"></path>
            <path d="M273.065117,26.2675267 C256.565921,26.2675267 243.190563,39.6428843 243.190563,56.1420811 C243.190563,72.6380307 256.565921,86.0133883 273.065117,86.0133883 C289.564314,86.0133883 302.936425,72.6380307 302.936425,56.1420811 C302.936425,39.6428843 289.564314,26.2675267 273.065117,26.2675267 M273.013162,97.3592245 C267.577292,97.3592245 262.251828,96.3038734 257.179648,94.2223963 C246.876174,89.9847557 238.842516,81.9900652 234.556167,71.7060745 C230.269818,61.4318256 230.24384,50.0957311 234.481481,39.8019987 C240.936983,24.1016215 256.078835,13.9540147 273.048881,13.9540147 C278.491246,13.9540147 283.823204,15.012613 288.892137,17.1005846 C299.192364,21.3284835 307.229268,29.3199268 311.518865,39.6006702 C315.805214,49.8749192 315.834439,61.2045192 311.600045,71.5014988 C305.134802,87.2083705 289.989702,97.3592245 273.013162,97.3592245" id="Fill-5"></path>
            <polygon id="Fill-6" points="217.418889 119.655384 213.671581 110.147482 219.997193 102.126814 230.073361 103.6108 233.820669 113.115454 227.491809 121.13937"></polygon>
            <path d="M204.012033,93.2479013 C203.003767,93.2479013 202.194556,92.4325208 202.194556,91.4242546 C202.194556,90.4159884 203.003767,89.6067777 204.012033,89.6067777 C205.020299,89.6067777 205.83568,90.4159884 205.83568,91.4242546 C205.83568,92.4325208 205.020299,93.2479013 204.012033,93.2479013 M187.693058,103.019154 C181.288538,103.019154 176.098159,97.8284499 176.098159,91.4242546 C176.098159,85.0200594 181.288538,79.8355253 187.693058,79.8355253 C194.091083,79.8355253 199.287957,85.0200594 199.287957,91.4242546 C199.287957,97.8284499 194.091083,103.019154 187.693058,103.019154 M187.300792,109.149932 C186.292526,109.149932 185.47747,108.334551 185.47747,107.326285 C185.47747,106.318019 186.292526,105.502638 187.300792,105.502638 C188.309058,105.502638 189.124439,106.318019 189.124439,107.326285 C189.124439,108.334551 188.309058,109.149932 187.300792,109.149932 M172.207972,93.2479013 C171.206201,93.2479013 170.39082,92.4325208 170.39082,91.4242546 C170.39082,90.4159884 171.206201,89.6067777 172.207972,89.6067777 C173.222733,89.6067777 174.031619,90.4159884 174.031619,91.4242546 C174.031619,92.4325208 173.222733,93.2479013 172.207972,93.2479013 M187.300792,73.7050719 C188.309058,73.7050719 189.124439,74.5204524 189.124439,75.5287186 C189.124439,76.5304903 188.309058,77.3458708 187.300792,77.3458708 C186.292526,77.3458708 185.47747,76.5304903 185.47747,75.5287186 C185.47747,74.5204524 186.292526,73.7050719 187.300792,73.7050719 M187.693058,71.2215872 C176.546277,71.2215872 167.484221,80.2836436 167.484221,91.4242546 C167.484221,102.571035 176.546277,111.633092 187.693058,111.633092 C198.833669,111.633092 207.895725,102.571035 207.895725,91.4242546 C207.895725,80.2836436 198.833669,71.2215872 187.693058,71.2215872" id="Fill-7"></path>
            <path d="M166.953298,128.744392 C167.758612,128.601514 168.528207,129.140555 168.667838,129.949116 C168.813963,130.75443 168.271675,131.520778 167.466361,131.663656 C166.661047,131.806534 165.891452,131.267493 165.748574,130.462179 C165.608943,129.656865 166.147984,128.887271 166.953298,128.744392 L166.953298,128.744392 Z M161.114771,130.994726 L161.403775,132.173472 L159.273589,134.826462 L160.319199,136.294212 L163.491746,135.086241 L164.530861,135.719451 L164.917282,139.099822 L166.71625,139.405062 L168.109313,136.37864 L169.288059,136.089636 L171.924813,138.122405 L173.369833,136.985873 L172.145625,133.829561 L172.772342,132.790446 L176.136476,132.397531 L176.396255,130.611552 L173.27891,129.250961 L172.989906,128.072215 L175.113597,125.402988 L174.067988,123.941733 L170.901935,125.182176 L169.869314,124.568449 L169.489388,121.214056 L167.713151,121.002986 L166.365549,124.211253 L165.186803,124.503504 L162.504587,122.282396 L161.017354,123.237083 L162.244808,126.416125 L161.618092,127.451993 L158.25071,127.825425 L157.990932,129.614651 L161.114771,130.994726 Z" id="Fill-8"></path>
            <path d="M172.299544,212.597071 C167.402715,219.393532 158.105884,218.922683 153.546767,215.847552 C149.130528,212.869839 145.834586,203.907472 150.728168,197.107764 L144.834438,192.85064 L142.701005,195.818612 L145.694955,197.978023 L138.122405,208.48932 L165.230315,227.998703 L172.802866,217.484158 L175.718882,219.581872 L177.858809,216.626889 L172.299544,212.597071 Z" id="Fill-9"></path>
            <path d="M177.509082,210.940657 C178.337127,209.787889 181.396021,205.433348 182.350708,204.108476 C178.213732,196.795705 175.60945,190.359687 182.798827,180.371194 C189.988203,170.389196 200.3826,170.743145 200.3826,170.743145 L181.253143,156.974872 C181.253143,156.974872 184.893293,166.716575 177.710411,176.708314 C170.521034,186.696806 163.490772,186.193485 155.246045,184.599093 C154.284863,185.920717 151.232463,190.285 150.401171,191.434521 L147.407221,189.281605 L145.273788,192.243082 L148.267738,194.395999 L151.02464,196.376812 C156.031875,190.090166 164.367525,190.515554 169.017565,193.356884 C173.807235,196.285889 177.184359,205.290469 172.810334,212.041469 L175.375649,213.905382 L178.29816,216.003095 L180.428346,213.048112 L177.509082,210.940657 Z" id="Fill-10"></path>
            <polygon id="Fill-11" points="228.067219 148.150838 225.039823 152.361526 190.874373 127.795226 193.902094 123.584537"></polygon>
            <polygon id="Fill-12" points="173.348726 152.042323 189.071184 130.203699 223.218449 154.787535 207.495991 176.626159"></polygon>
            <polygon id="Fill-13" points="166.238906 173.806586 159.874327 172.747987 157.588275 166.717873 161.663553 161.746358 168.024885 162.804956 170.314185 168.83507"></polygon>
            <polygon id="Fill-14" points="166.238906 173.806586 159.874327 172.747987 157.588275 166.717873 161.663553 161.746358 168.024885 162.804956 170.314185 168.83507"></polygon>
            <path d="M158.097766,86.9914552 L155.166163,86.7118684 L154.307594,89.663929 L152.366722,89.3236188 L152.554737,86.2546578 L149.699119,85.5331224 L150.034558,83.5974461 L152.966161,83.8767082 L153.829926,80.9298432 L155.765602,81.2652825 L155.577587,84.3342435 L158.433205,85.055779 L158.097766,86.9914552 Z M155.425292,77.4647196 C151.1016,76.7126602 146.986055,79.6088683 146.233996,83.9328854 C145.481936,88.2617733 148.383015,92.3773179 152.707032,93.1290526 C157.03592,93.881112 161.146269,90.980033 161.898329,86.656016 C162.650388,82.3271281 159.749309,78.2115835 155.425292,77.4647196 L155.425292,77.4647196 Z" id="Fill-15"></path>
        </g>
    </g>
</svg>